<svg width="20" height="20" viewBox="0 0 20 20" fill="none" xmlns="http://www.w3.org/2000/svg">
<path d="M5.1846 14.2538H4.22306C3.16152 14.2538 2.30768 13.3922 2.30768 12.3384V4.223C2.30768 3.16916 3.16922 2.30762 4.22306 2.30762H12.3384C13.4 2.30762 14.2538 3.16916 14.2538 4.223V5.18454M11.1538 8.59993V13.7153M13.7154 11.1538H8.59999M7.23076 5.18454H15.0846C16.2147 5.18454 17.1308 6.10063 17.1308 7.23069V15.0845C17.1308 16.2146 16.2147 17.1307 15.0846 17.1307H7.23076C6.1007 17.1307 5.1846 16.2146 5.1846 15.0845V7.23069C5.1846 6.10063 6.1007 5.18454 7.23076 5.18454Z" stroke="#D0D0D8" stroke-width="1.5" stroke-linecap="round" stroke-linejoin="round"/>
</svg>
