<svg width="20" height="20" viewBox="0 0 20 20" fill="none" xmlns="http://www.w3.org/2000/svg">
<path d="M6.93009 13.8551L10.007 16.932M10.007 16.932L13.0839 13.8551M10.007 16.932V10.0089M16.8378 14.6936C17.5065 14.2233 18.0081 13.5521 18.2695 12.7775C18.531 12.0029 18.5389 11.1651 18.2919 10.3857C18.045 9.60635 17.5561 8.92594 16.8963 8.44322C16.2365 7.96051 15.44 7.70061 14.6224 7.70125H13.6532C13.4218 6.79962 12.9889 5.96221 12.3871 5.25208C11.7853 4.54195 11.0302 3.97761 10.1787 3.60152C9.32722 3.22544 8.4015 3.04743 7.47126 3.08088C6.54102 3.11433 5.63048 3.35838 4.8082 3.79466C3.98593 4.23093 3.27334 4.84806 2.72408 5.59958C2.17482 6.35111 1.8032 7.21744 1.63721 8.13337C1.47122 9.04929 1.51517 9.99094 1.76576 10.8874C2.01636 11.7839 2.46706 12.6119 3.08393 13.3089" stroke="#D0D0D8" stroke-width="1.5" stroke-linecap="round" stroke-linejoin="round"/>
</svg>
