<svg width="20" height="20" viewBox="0 0 20 20" fill="none" xmlns="http://www.w3.org/2000/svg">
<path d="M9.23069 3.93952H3.84608C3.43805 3.93952 3.04674 4.10161 2.75822 4.39013C2.4697 4.67865 2.30762 5.06996 2.30762 5.47799V16.2472C2.30762 16.6552 2.4697 17.0466 2.75822 17.3351C3.04674 17.6236 3.43805 17.7857 3.84608 17.7857H14.6153C15.0233 17.7857 15.4146 17.6236 15.7032 17.3351C15.9917 17.0466 16.1538 16.6552 16.1538 16.2472V10.8626M14.9999 2.78568C15.3059 2.47966 15.721 2.30774 16.1538 2.30774C16.5865 2.30774 17.0016 2.47966 17.3076 2.78568C17.6136 3.0917 17.7856 3.50675 17.7856 3.93952C17.7856 4.3723 17.6136 4.78735 17.3076 5.09337L9.99992 12.4011L6.923 13.1703L7.69223 10.0934L14.9999 2.78568Z" stroke="#D0D0D8" stroke-width="1.5" stroke-linecap="round" stroke-linejoin="round"/>
</svg>
