<svg width="18" height="18" viewBox="0 0 18 18" fill="none" xmlns="http://www.w3.org/2000/svg">
<path d="M8.30767 3.54551H3.46152C3.0943 3.54551 2.74211 3.69139 2.48245 3.95106C2.22278 4.21072 2.0769 4.5629 2.0769 4.93013V14.6224C2.0769 14.9897 2.22278 15.3418 2.48245 15.6015C2.74211 15.8612 3.0943 16.007 3.46152 16.007H13.1538C13.5211 16.007 13.8732 15.8612 14.1329 15.6015C14.3926 15.3418 14.5384 14.9897 14.5384 14.6224V9.77628M13.5 2.50705C13.7754 2.23163 14.1489 2.0769 14.5384 2.0769C14.9279 2.0769 15.3015 2.23163 15.5769 2.50705C15.8523 2.78247 16.007 3.15601 16.007 3.54551C16.007 3.93501 15.8523 4.30856 15.5769 4.58397L8.99998 11.1609L6.23075 11.8532L6.92306 9.08397L13.5 2.50705Z" stroke="#D0D0D8" stroke-width="1.5" stroke-linecap="round" stroke-linejoin="round"/>
</svg>
