<svg width="22" height="22" viewBox="0 0 22 22" fill="none" xmlns="http://www.w3.org/2000/svg">
<path d="M12.7938 12.7938C12.5653 13.0392 12.2776 13.2423 11.973 13.3862C11.66 13.5215 11.3215 13.5977 10.983 13.6062C10.6446 13.6062 10.3061 13.5469 9.98457 13.42C9.67149 13.2931 9.3838 13.0985 9.13841 12.8615C8.90149 12.6246 8.70688 12.3369 8.57995 12.0154C8.45303 11.7023 8.3938 11.3638 8.3938 11.0169C8.3938 10.6785 8.47841 10.34 8.6138 10.0269C8.74918 9.71384 8.95226 9.43461 9.20611 9.20615L12.7938 12.7938ZM1.69226 1.69231L20.3076 20.3077L1.69226 1.69231ZM16.0261 16.0262C14.5792 17.1262 12.8192 17.7354 11 17.7692C5.07688 17.7692 1.69226 11 1.69226 11C2.74149 9.03692 4.20534 7.32769 5.9738 5.97384L16.0261 16.0262ZM9.22303 4.43384C9.80688 4.29846 10.3992 4.23077 11 4.23077C16.923 4.23077 20.3076 11 20.3076 11C19.7915 11.9646 19.1823 12.8615 18.48 13.6992L9.22303 4.43384Z" stroke="#D0D0D8" stroke-width="1.5" stroke-linecap="round" stroke-linejoin="round"/>
</svg>
