<svg width="22" height="22" viewBox="0 0 22 22" fill="none" xmlns="http://www.w3.org/2000/svg">
<path d="M12.7939 12.7939C12.5654 13.0393 12.2777 13.2424 11.9731 13.3862C11.66 13.5216 11.3216 13.5978 10.9831 13.6062C10.6446 13.6062 10.3062 13.547 9.98463 13.4201C9.67155 13.2932 9.38386 13.0985 9.13848 12.8616C8.90155 12.6247 8.70694 12.337 8.58001 12.0155C8.45309 11.7024 8.39386 11.3639 8.39386 11.017C8.39386 10.6785 8.47848 10.3401 8.61386 10.027C8.74924 9.71392 8.95232 9.43469 9.20617 9.20623L12.7939 12.7939ZM1.69232 1.69238L20.3077 20.3078L1.69232 1.69238ZM16.0262 16.0262C14.5792 17.1262 12.8192 17.7355 11 17.7693C5.07694 17.7693 1.69232 11.0001 1.69232 11.0001C2.74155 9.037 4.2054 7.32777 5.97386 5.97392L16.0262 16.0262ZM9.22309 4.43392C9.80694 4.29854 10.3992 4.23084 11 4.23084C16.9231 4.23084 20.3077 11.0001 20.3077 11.0001C19.7916 11.9647 19.1823 12.8616 18.48 13.6993L9.22309 4.43392Z" stroke="#ffffff" stroke-width="1.5" stroke-linecap="round" stroke-linejoin="round"/>
</svg>
