<svg width="18" height="18" viewBox="0 0 18 18" fill="none" xmlns="http://www.w3.org/2000/svg">
<path fill-rule="evenodd" clip-rule="evenodd" d="M14.3862 6.42971L11.9008 8.9151L11.9077 8.92202L12.0185 9.03279C12.3092 9.32356 12.2608 9.84279 11.9077 10.1959C11.5546 10.5489 11.0354 10.5974 10.7446 10.3066L8.02384 7.58587C7.73307 7.2951 7.78154 6.77587 8.13461 6.42279C8.48769 6.06971 9.00692 6.02125 9.29769 6.31202L9.40846 6.42279L11.8938 3.93741C12.7177 3.10664 13.4585 3.48048 14.1508 4.17279C14.8431 4.85817 15.2169 5.59894 14.3862 6.42971ZM7.85495 9.80545C8.14784 9.51256 8.14784 9.03768 7.85495 8.74479C7.56206 8.4519 7.08718 8.4519 6.79429 8.74479L4.68967 10.8494C4.57854 10.9605 4.50513 11.1038 4.4798 11.2589L4.18348 13.0739L3.44845 13.8145C3.15666 14.1085 3.15845 14.5834 3.45245 14.8751C3.74645 15.1669 4.22132 15.1651 4.5131 14.8711L5.26747 14.111L7.11877 13.7944C7.27177 13.7682 7.41288 13.6952 7.52264 13.5854L9.5788 11.5293C9.87169 11.2364 9.87169 10.7615 9.5788 10.4686C9.2859 10.1757 8.81103 10.1757 8.51814 10.4686L6.63069 12.3561L5.79726 12.4986L5.92126 11.7391L7.85495 9.80545Z" fill="#D0D0D8"/>
</svg>
