<svg width="21" height="20" viewBox="0 0 21 20" fill="none" xmlns="http://www.w3.org/2000/svg">
<path d="M17.2621 9.7401L10.1929 16.8093C9.32687 17.6754 8.15228 18.1619 6.92752 18.1619C5.70277 18.1619 4.52817 17.6754 3.66214 16.8093C2.7961 15.9433 2.30957 14.7687 2.30957 13.5439C2.30957 12.3192 2.7961 11.1446 3.66214 10.2786L10.7314 3.20933C11.3087 2.63197 12.0918 2.30762 12.9083 2.30762C13.7248 2.30762 14.5079 2.63197 15.0852 3.20933C15.6626 3.78668 15.9869 4.56975 15.9869 5.38625C15.9869 6.20276 15.6626 6.98582 15.0852 7.56317L8.00829 14.6324C7.71961 14.9211 7.32808 15.0833 6.91983 15.0833C6.51158 15.0833 6.12005 14.9211 5.83137 14.6324C5.54269 14.3437 5.38051 13.9522 5.38051 13.5439C5.38051 13.1357 5.54269 12.7442 5.83137 12.4555L12.3621 5.9324" stroke="#656568" stroke-width="1.5" stroke-linecap="round" stroke-linejoin="round"/>
</svg>
