<svg width="26" height="26" viewBox="0 0 26 26" fill="none" xmlns="http://www.w3.org/2000/svg">
<path d="M6.67 4.34H18.61M4.41 18.53V6.67M18.61 20.87H6.67M20.94 6.67V18.53M2 2H6.67V6.67H2V2ZM18.61 2H23.28V6.67H18.61V2ZM2 18.53H6.67V23.2H2V18.53ZM18.61 18.53H23.28V23.2H18.61V18.53ZM17.39 10.96C17.39 12.8267 15.2813 14.34 12.68 14.34C10.0787 14.34 7.97 12.8267 7.97 10.96C7.97 9.09328 10.0787 7.58 12.68 7.58C15.2813 7.58 17.39 9.09328 17.39 10.96ZM17.39 14.34C17.39 16.2067 15.2813 17.72 12.68 17.72C10.0787 17.72 7.97 16.2067 7.97 14.34C7.97 12.4733 10.0787 10.96 12.68 10.96C15.2813 10.96 17.39 12.4733 17.39 14.34Z" stroke="#D0D0D8" stroke-width="1.5" stroke-linecap="round" stroke-linejoin="round"/>
</svg>
