<svg width="15" height="15" viewBox="0 0 20 20" fill="none" xmlns="http://www.w3.org/2000/svg">
<path d="M2.30762 8.4519L5.87685 5.09806C6.93839 4.03652 8.31531 3.3519 9.79992 3.14421C11.2845 2.93652 12.7999 3.21344 14.1153 3.94421C15.4307 4.66729 16.4692 5.80575 17.0845 7.17498C17.6999 8.54421 17.8461 10.075 17.5153 11.5442C17.1845 13.0058 16.3845 14.3211 15.2384 15.2904C14.0922 16.2596 12.6615 16.8288 11.1615 16.9134C9.66146 16.9981 8.17685 16.5981 6.93069 15.7673C6.15377 15.2519 5.49992 14.5904 4.99223 13.8211M2.30762 3.83652V8.4519V3.83652ZM2.30762 8.4519H6.923H2.30762Z" stroke="white" stroke-width="1.5" stroke-linecap="round" stroke-linejoin="round"/>
</svg>
