<svg width="22" height="22" viewBox="0 0 22 22" fill="none" xmlns="http://www.w3.org/2000/svg">
<path d="M8.92691 8.88473C8.92691 7.57319 9.99307 6.50704 11.3046 6.50704C12.6161 6.50704 13.6823 7.57319 13.6823 8.88473C13.6823 10.1963 12.6161 11.2624 11.3046 11.2624V13.1409M20.0877 11.3132C20.0877 16.1593 16.1592 20.0878 11.3131 20.0878C6.46698 20.0878 2.53845 16.1593 2.53845 11.3132C2.53845 6.4671 6.46698 2.53857 11.3131 2.53857C16.1592 2.53857 20.0877 6.4671 20.0877 11.3132ZM11.7869 15.7047C11.7869 15.9664 11.5748 16.1786 11.3131 16.1786C11.0514 16.1786 10.8392 15.9664 10.8392 15.7047C10.8392 15.443 11.0514 15.2309 11.3131 15.2309C11.5748 15.2309 11.7869 15.443 11.7869 15.7047Z" stroke="#D0D0D8" stroke-width="1.5" stroke-linecap="round" stroke-linejoin="round"/>
</svg>
