<svg width="20" height="20" viewBox="0 0 20 20" fill="none" xmlns="http://www.w3.org/2000/svg">
<path d="M16.9233 8.46165C16.9233 13.8463 10.0002 18.4617 10.0002 18.4617C10.0002 18.4617 3.07715 13.8463 3.07715 8.46165C3.07715 6.62554 3.80654 4.86463 5.10487 3.5663C6.4032 2.26797 8.16411 1.53857 10.0002 1.53857C11.8363 1.53857 13.5973 2.26797 14.8956 3.5663C16.1939 4.86463 16.9233 6.62554 16.9233 8.46165Z" stroke="#D0D0D8" stroke-width="1.5" stroke-linecap="round" stroke-linejoin="round"/>
<path d="M10.0002 10.7693C11.2747 10.7693 12.3079 9.73615 12.3079 8.46165C12.3079 7.18715 11.2747 6.15396 10.0002 6.15396C8.72572 6.15396 7.69253 7.18715 7.69253 8.46165C7.69253 9.73615 8.72572 10.7693 10.0002 10.7693Z" stroke="#D0D0D8" stroke-width="1.5" stroke-linecap="round" stroke-linejoin="round"/>
</svg>
