<svg width="22" height="22" viewBox="0 0 22 22" fill="none" xmlns="http://www.w3.org/2000/svg">
<path d="M6.76923 10.154V6.76934C6.76923 5.64396 7.21769 4.56934 8.00461 3.77396C8.8 2.97857 9.87461 2.53857 11 2.53857C12.1254 2.53857 13.2 2.98704 13.9954 3.77396C14.7908 4.56934 15.2308 5.64396 15.2308 6.76934V10.154H6.76923ZM5.07692 10.154H16.9231C17.8538 10.154 18.6154 10.9155 18.6154 11.8463V17.7693C18.6154 18.7001 17.8538 19.4617 16.9231 19.4617H5.07692C4.14615 19.4617 3.38461 18.7001 3.38461 17.7693V11.8463C3.38461 10.9155 4.14615 10.154 5.07692 10.154Z" stroke="white" stroke-width="1.5" stroke-linecap="round" stroke-linejoin="round"/>
</svg>
