<svg width="26" height="26" viewBox="0 0 26 26" fill="none" xmlns="http://www.w3.org/2000/svg">
<path d="M3.3199 6.53C4.5799 6.11 5.9099 6.05 7.2199 6C8.4899 6 9.8199 6.02 10.9999 6.53C11.5999 6.78 12.0199 7.33 12.2199 7.94C12.5499 8.85 12.5599 9.83 12.5699 10.79C11.6999 10.79 10.8199 10.79 9.9499 10.79C9.9399 10.12 9.9899 9.36 9.5699 8.79C9.1499 8.36 8.4899 8.36 7.9299 8.29C6.7899 8.27 5.6099 8.2 4.5199 8.59C4.1299 8.71 3.9199 9.11 3.8499 9.48C3.6299 10.49 3.6299 11.54 3.6299 12.58C3.6399 13.96 3.6299 15.37 3.9199 16.73C3.9999 17.23 4.4599 17.53 4.9199 17.64C5.9799 17.9 7.0899 17.87 8.1799 17.8C8.7499 17.73 9.4299 17.69 9.7899 17.17C10.1699 16.55 10.1099 15.79 10.0899 15.09C10.9699 15.09 11.8499 15.09 12.7399 15.09C12.7299 16.19 12.7099 17.32 12.3099 18.36C12.0999 18.9 11.6799 19.37 11.1299 19.57C10.0499 20 8.8699 20.03 7.7199 20.1C6.3899 20.12 5.0499 20.1 3.7499 19.78C2.9899 19.58 2.1599 19.23 1.7999 18.48C1.3499 17.48 1.2699 16.37 1.1499 15.29C1.0399 13.87 0.979905 12.45 0.999905 11.02C1.0799 9.87 1.1799 8.65 1.8099 7.64C2.1399 7.08 2.7199 6.73 3.3299 6.52L3.3199 6.53ZM13.1499 6.12C14.0599 6.12 14.9699 6.09 15.8799 6.13C16.7699 8.94 17.7399 11.73 18.6299 14.53C18.9799 15.61 19.2199 16.72 19.5799 17.79C19.9799 16.63 20.2399 15.42 20.6399 14.26C21.5099 11.54 22.4099 8.84 23.2899 6.12C24.1899 6.08 25.0899 6.12 25.9899 6.1V6.42C24.5099 10.93 23.0599 15.46 21.6099 19.98C20.2599 20.01 18.8999 20.01 17.5499 19.98C16.1199 15.35 14.5999 10.75 13.1499 6.12Z" fill="#D0D0D8"/>
</svg>
