<svg width="22" height="22" viewBox="0 0 22 22" fill="none" xmlns="http://www.w3.org/2000/svg">
<path d="M11 7.277V16.4155M14.723 16.4155H7.27688M10.0692 7.277H11.9307C12.9588 7.277 13.7923 6.44356 13.7923 5.41546V3.55392C13.7923 2.52582 12.9588 1.69238 11.9307 1.69238H10.0692C9.04108 1.69238 8.20765 2.52582 8.20765 3.55392V5.41546C8.20765 6.44356 9.04108 7.277 10.0692 7.277ZM3.5538 19.2078H5.41534C6.44344 19.2078 7.27688 18.3743 7.27688 17.3462V15.4847C7.27688 14.4566 6.44344 13.6232 5.41534 13.6232H3.5538C2.5257 13.6232 1.69226 14.4566 1.69226 15.4847V17.3462C1.69226 18.3743 2.5257 19.2078 3.5538 19.2078ZM16.5846 19.2078H18.4461C19.4742 19.2078 20.3076 18.3743 20.3076 17.3462V15.4847C20.3076 14.4566 19.4742 13.6232 18.4461 13.6232H16.5846C15.5565 13.6232 14.723 14.4566 14.723 15.4847V17.3462C14.723 18.3743 15.5565 19.2078 16.5846 19.2078Z" stroke="#D0D0D8" stroke-width="1.5" stroke-linecap="round" stroke-linejoin="round"/>
</svg>
