<svg width="22" height="22" viewBox="0 0 22 22" fill="none" xmlns="http://www.w3.org/2000/svg">
<path d="M5.07693 12.4464C5.07693 11.1885 6.59097 10.1339 7.6154 9.78741C7.96942 9.66689 8.23306 9.32793 8.23306 8.91364V6.09648C8.23306 5.59933 7.8715 5.19257 7.42708 5.19257H7.27643C6.83201 5.19257 6.47045 4.78582 6.47045 4.28867C6.47045 3.79152 6.83201 3.38477 7.27643 3.38477H13.9578C14.4022 3.38477 14.7638 3.79152 14.7638 4.28867C14.7638 4.78582 14.4022 5.19257 13.9578 5.19257H13.8071C13.3627 5.19257 13.0012 5.59933 13.0012 6.09648V8.91364C13.0012 9.32793 13.2648 9.67443 13.6188 9.78741C14.6432 10.1339 16.1573 11.1885 16.1573 12.4464H5.07693Z" fill="white"/>
<path d="M11.3591 14.7062H9.86762V18.6155H11.3591V14.7062Z" fill="white"/>
<path d="M5.07693 12.4464C5.07693 11.1885 6.59097 10.1339 7.6154 9.78741C7.96942 9.66689 8.23306 9.32793 8.23306 8.91364V6.09648C8.23306 5.59933 7.8715 5.19257 7.42708 5.19257H7.27643C6.83201 5.19257 6.47045 4.78582 6.47045 4.28867C6.47045 3.79152 6.83201 3.38477 7.27643 3.38477H13.9578C14.4022 3.38477 14.7638 3.79152 14.7638 4.28867C14.7638 4.78582 14.4022 5.19257 13.9578 5.19257H13.8071C13.3627 5.19257 13.0012 5.59933 13.0012 6.09648V8.91364C13.0012 9.32793 13.2648 9.67443 13.6188 9.78741C14.6432 10.1339 16.1573 11.1885 16.1573 12.4464H5.07693Z" stroke="white" stroke-width="1.5" stroke-linecap="round" stroke-linejoin="round"/>
<path d="M11.3591 14.7062H9.86762V18.6155H11.3591V14.7062Z" stroke="white" stroke-width="1.5" stroke-linecap="round" stroke-linejoin="round"/>
</svg>
