<svg width="26" height="26" viewBox="0 0 26 26" fill="none" xmlns="http://www.w3.org/2000/svg">
<path d="M21.51 18.29C22.22 19.62 22.61 21.11 22.61 22.66M7.07 11.72C10.2 13.74 14.1 12.68 17.39 14.29C17.79 14.48 18.16 14.7 18.52 14.95M3 4V4.04C3 5.69 3.45 7.3 4.26 8.71M7.52 10.54C7.52 11.5562 6.6962 12.38 5.68 12.38C4.6638 12.38 3.84 11.5562 3.84 10.54C3.84 9.5238 4.6638 8.7 5.68 8.7C6.6962 8.7 7.52 9.5238 7.52 10.54ZM22.21 16.58C22.21 17.5962 21.3862 18.42 20.37 18.42C19.3538 18.42 18.53 17.5962 18.53 16.58C18.53 15.5638 19.3538 14.74 20.37 14.74C21.3862 14.74 22.21 15.5638 22.21 16.58Z" stroke="white" stroke-width="1.5" stroke-linecap="round" stroke-linejoin="round"/>
</svg>
