<svg width="26" height="26" viewBox="0 0 26 26" fill="none" xmlns="http://www.w3.org/2000/svg">
<path d="M3 10.9872L7.64 6.62718C9.02 5.24718 10.81 4.35718 12.74 4.08718C14.67 3.81718 16.64 4.17718 18.35 5.12718C20.06 6.06718 21.41 7.54718 22.21 9.32718C23.01 11.1072 23.2 13.0972 22.77 15.0072C22.34 16.9072 21.3 18.6172 19.81 19.8772C18.32 21.1372 16.46 21.8772 14.51 21.9872C12.56 22.0972 10.63 21.5772 9.01 20.4972C8 19.8272 7.15 18.9672 6.49 17.9672M3 4.98718V10.9872V4.98718ZM3 10.9872H9H3Z" stroke="#D0D0D8" stroke-width="1.5" stroke-linecap="round" stroke-linejoin="round"/>
</svg>
