<svg width="20" height="20" viewBox="0 0 20 20" fill="none" xmlns="http://www.w3.org/2000/svg">
<path fill-rule="evenodd" clip-rule="evenodd" d="M15.9844 7.14326L13.2228 9.9048L13.2305 9.91249L13.3536 10.0356C13.6767 10.3586 13.6228 10.9356 13.2305 11.3279C12.8382 11.7202 12.2613 11.774 11.9382 11.4509L8.91515 8.42787C8.59207 8.1048 8.64592 7.52787 9.03823 7.13557C9.43054 6.74326 10.0075 6.68941 10.3305 7.01249L10.4536 7.13557L13.2152 4.37403C14.1305 3.45095 14.9536 3.86633 15.7228 4.63556C16.4921 5.3971 16.9075 6.22018 15.9844 7.14326ZM8.66857 10.8351C8.96146 10.5423 8.96146 10.0674 8.66857 9.77449C8.37567 9.4816 7.9008 9.4816 7.60791 9.77449L5.26944 12.113C5.15831 12.2241 5.0849 12.3673 5.05957 12.5224L4.72602 14.5654L3.89052 15.4073C3.59874 15.7013 3.60053 16.1761 3.89453 16.4679C4.18852 16.7597 4.66339 16.7579 4.95518 16.4639L5.81217 15.6004L7.89546 15.2441C8.04846 15.2179 8.18957 15.1449 8.29934 15.0351L10.584 12.7505C10.8768 12.4576 10.8768 11.9828 10.584 11.6899C10.2911 11.397 9.81618 11.397 9.52329 11.6899L7.40738 13.8058L6.3401 13.9883L6.50103 13.0027L8.66857 10.8351Z" fill="#D0D0D8"/>
</svg>
