<svg width="20" height="20" viewBox="0 0 20 20" fill="none" xmlns="http://www.w3.org/2000/svg">
<path d="M5.38454 5.38466H5.39223M5.38454 14.6154H5.39223M3.84608 2.30774H16.1538C17.0034 2.30774 17.6922 2.99653 17.6922 3.8462V6.92312C17.6922 7.77279 17.0034 8.46159 16.1538 8.46159H3.84608C2.99641 8.46159 2.30762 7.77279 2.30762 6.92312V3.8462C2.30762 2.99653 2.99641 2.30774 3.84608 2.30774ZM3.84608 11.5385H16.1538C17.0034 11.5385 17.6922 12.2273 17.6922 13.077V16.1539C17.6922 17.0036 17.0034 17.6924 16.1538 17.6924H3.84608C2.99641 17.6924 2.30762 17.0036 2.30762 16.1539V13.077C2.30762 12.2273 2.99641 11.5385 3.84608 11.5385Z" stroke="#D0D0D8" stroke-width="1.5" stroke-linecap="round" stroke-linejoin="round"/>
</svg>
