<svg width="22" height="22" viewBox="0 0 22 22" fill="none" xmlns="http://www.w3.org/2000/svg">
<path d="M11.0169 13.547C12.4215 13.547 13.5553 12.4132 13.5553 11.0085C13.5553 9.60392 12.4215 8.47007 11.0169 8.47007C9.61226 8.47007 8.47841 9.60392 8.47841 11.0085C8.47841 12.4132 9.61226 13.547 11.0169 13.547Z" stroke="#D0D0D8" stroke-width="1.5" stroke-linecap="round" stroke-linejoin="round"/>
<path d="M17.2784 13.547C17.1684 13.8008 17.1346 14.0885 17.1853 14.3593C17.2361 14.6301 17.363 14.8839 17.5576 15.087L17.6084 15.1378C17.7692 15.2985 17.8876 15.4847 17.9723 15.6878C18.0569 15.8908 18.0992 16.1108 18.0992 16.3393C18.0992 16.5678 18.0569 16.7793 17.9723 16.9908C17.8876 17.1939 17.7607 17.3801 17.6084 17.5408C17.4476 17.7016 17.2615 17.8201 17.0584 17.9047C16.8553 17.9893 16.6353 18.0316 16.4069 18.0316C16.1784 18.0316 15.9669 17.9893 15.7553 17.9047C15.5523 17.8201 15.3661 17.6932 15.2053 17.5408L15.1546 17.4901C14.9515 17.2955 14.7061 17.1601 14.4269 17.1178C14.1476 17.0755 13.8684 17.1008 13.6146 17.2108C13.3607 17.3208 13.1492 17.4985 12.9969 17.727C12.8446 17.9555 12.7684 18.2178 12.7684 18.4885V18.6324C12.7684 19.0808 12.5907 19.5124 12.2692 19.8255C11.9476 20.147 11.5246 20.3247 11.0761 20.3247C10.6276 20.3247 10.1961 20.147 9.88303 19.8255C9.56149 19.5039 9.3838 19.0808 9.3838 18.6324V18.5562C9.3838 18.277 9.29072 18.0062 9.12149 17.7778C8.96072 17.5493 8.73226 17.3801 8.46995 17.2785C8.21611 17.1685 7.92841 17.1347 7.65765 17.1855C7.38688 17.2362 7.13303 17.3632 6.92995 17.5578L6.87918 17.6085C6.71841 17.7693 6.53226 17.8878 6.32918 17.9724C6.12611 18.057 5.90611 18.0993 5.67765 18.0993C5.44918 18.0993 5.23765 18.057 5.02611 17.9724C4.82303 17.8878 4.63688 17.7608 4.47611 17.6085C4.31534 17.4478 4.19688 17.2616 4.11226 17.0585C4.02765 16.8555 3.98534 16.6355 3.98534 16.407C3.98534 16.1785 4.02765 15.967 4.11226 15.7555C4.19688 15.5439 4.3238 15.3662 4.47611 15.2055L4.52688 15.1547C4.72149 14.9516 4.85688 14.7062 4.89918 14.427C4.94995 14.1562 4.91611 13.8685 4.80611 13.6147C4.69611 13.3608 4.51841 13.1493 4.28995 12.997C4.06149 12.8447 3.79918 12.7685 3.52841 12.7685H3.38457C2.93611 12.7685 2.50457 12.5908 2.19149 12.2693C1.86995 11.9478 1.69226 11.5247 1.69226 11.0762C1.69226 10.6278 1.86995 10.1962 2.19149 9.88315C2.51303 9.56161 2.93611 9.38392 3.38457 9.38392H3.46072C3.73995 9.38392 4.01072 9.29084 4.23918 9.12161C4.46765 8.96084 4.63688 8.73238 4.73841 8.47007C4.84841 8.21623 4.88226 7.92854 4.83149 7.65777C4.78072 7.387 4.6538 7.13315 4.45918 6.93007L4.40841 6.87931C4.24765 6.71854 4.12918 6.53238 4.04457 6.32931C3.95995 6.12623 3.91765 5.90623 3.91765 5.67777C3.91765 5.44931 3.95995 5.23777 4.04457 5.02623C4.12918 4.82315 4.25611 4.637 4.40841 4.47623C4.56918 4.31546 4.75534 4.197 4.95841 4.11238C5.16149 4.02777 5.38149 3.98546 5.60995 3.98546C5.83841 3.98546 6.04995 4.02777 6.26149 4.11238C6.46457 4.197 6.65072 4.32392 6.81149 4.47623L6.86226 4.527C7.06534 4.72161 7.31918 4.857 7.58995 4.89931C7.86072 4.95008 8.14841 4.91623 8.40226 4.80623H8.46995C8.7238 4.69623 8.93534 4.51854 9.08764 4.29007C9.23995 4.06161 9.31611 3.79931 9.31611 3.52854V3.38469C9.31611 2.93623 9.4938 2.50469 9.81534 2.19161C10.1369 1.87008 10.56 1.69238 11.0084 1.69238C11.4569 1.69238 11.8884 1.87008 12.2015 2.19161C12.523 2.51315 12.7007 2.93623 12.7007 3.38469V3.46084C12.7007 3.73161 12.7853 4.00238 12.9292 4.22238C13.0815 4.45084 13.293 4.62854 13.5469 4.73854C13.8007 4.84854 14.0884 4.88238 14.3592 4.83161C14.63 4.78084 14.8838 4.65392 15.0869 4.45931L15.1376 4.40854C15.2984 4.24777 15.4846 4.12931 15.6876 4.04469C15.8907 3.96007 16.1107 3.91777 16.3392 3.91777C16.5676 3.91777 16.7792 3.96007 16.9907 4.04469C17.1938 4.12931 17.38 4.25623 17.5407 4.40854C17.7015 4.56931 17.82 4.75546 17.9046 4.95854C17.9892 5.16161 18.0315 5.38161 18.0315 5.61007C18.0315 5.83854 17.9892 6.05007 17.9046 6.26161C17.82 6.46469 17.693 6.65084 17.5407 6.81161L17.49 6.86238C17.2953 7.06546 17.16 7.31931 17.1176 7.59007C17.0669 7.86084 17.1007 8.14854 17.2107 8.40238V8.47007C17.3207 8.72392 17.4984 8.93546 17.7269 9.08777C17.9553 9.24007 18.2176 9.31623 18.4884 9.31623H18.6323C19.0807 9.31623 19.5123 9.49392 19.8253 9.81546C20.1469 10.137 20.3246 10.5601 20.3246 11.0085C20.3246 11.457 20.1469 11.8885 19.8253 12.2016C19.5038 12.5232 19.0807 12.7008 18.6323 12.7008H18.5561C18.2853 12.7008 18.0146 12.7855 17.7946 12.9293C17.5661 13.0816 17.3884 13.2932 17.2784 13.547Z" stroke="#D0D0D8" stroke-width="1.5" stroke-linecap="round" stroke-linejoin="round"/>
</svg>
