<svg width="18" height="18" viewBox="0 0 18 18" fill="none" xmlns="http://www.w3.org/2000/svg">
<path d="M2.76929 4.84613H4.1539M4.1539 4.84613H15.2308M4.1539 4.84613V14.5384C4.1539 14.9057 4.29978 15.2578 4.55945 15.5175C4.81911 15.7772 5.1713 15.9231 5.53852 15.9231H12.4616C12.8288 15.9231 13.181 15.7772 13.4407 15.5175C13.7003 15.2578 13.8462 14.9057 13.8462 14.5384V4.84613H4.1539ZM6.23083 4.84613V3.46152C6.23083 3.0943 6.3767 2.74211 6.63637 2.48245C6.89604 2.22278 7.24822 2.0769 7.61544 2.0769H10.3847C10.7519 2.0769 11.1041 2.22278 11.3637 2.48245C11.6234 2.74211 11.7693 3.0943 11.7693 3.46152V4.84613M7.61544 8.30767V12.4615M10.3847 8.30767V12.4615" stroke="#D0D0D8" stroke-width="1.5" stroke-linecap="round" stroke-linejoin="round"/>
</svg>
