<svg width="18" height="18" viewBox="0 0 18 18" fill="none" xmlns="http://www.w3.org/2000/svg">
<path d="M2.76904 4.84638H4.15366M4.15366 4.84638H15.2306M4.15366 4.84638V14.5387C4.15366 14.9059 4.29954 15.2581 4.5592 15.5178C4.81887 15.7774 5.17105 15.9233 5.53827 15.9233H12.4614C12.8286 15.9233 13.1808 15.7774 13.4404 15.5178C13.7001 15.2581 13.846 14.9059 13.846 14.5387V4.84638H4.15366ZM6.23058 4.84638V3.46176C6.23058 3.09454 6.37646 2.74236 6.63613 2.48269C6.89579 2.22303 7.24797 2.07715 7.6152 2.07715H10.3844C10.7517 2.07715 11.1038 2.22303 11.3635 2.48269C11.6232 2.74236 11.769 3.09454 11.769 3.46176V4.84638M7.6152 8.30792V12.4618M10.3844 8.30792V12.4618" stroke="#2C2D2E" stroke-width="1.5" stroke-linecap="round" stroke-linejoin="round"/>
</svg>
