<svg width="20" height="20" viewBox="0 0 20 20" fill="none" xmlns="http://www.w3.org/2000/svg">
<path d="M11.3461 9.03843V13.6538M2.88452 5.19228H4.42298H2.88452ZM4.42298 5.19228H16.7307H4.42298ZM4.42298 5.19228V15.9615C4.42298 16.3692 4.58452 16.7615 4.87683 17.0461C5.16914 17.3384 5.55375 17.5 5.96144 17.5H13.6538C14.0614 17.5 14.4538 17.3384 14.7384 17.0461C15.0307 16.7538 15.1922 16.3692 15.1922 15.9615V5.19228H4.42298ZM6.73068 5.19228V3.65382C6.73068 3.24613 6.89221 2.85382 7.18452 2.5692C7.47683 2.27689 7.86145 2.11536 8.26914 2.11536H11.3461C11.7538 2.11536 12.1461 2.27689 12.4307 2.5692C12.723 2.86151 12.8845 3.24613 12.8845 3.65382V5.19228H6.73068ZM8.26914 9.03843V13.6538V9.03843Z" stroke="#D0D0D8" stroke-width="1.5" stroke-linecap="round" stroke-linejoin="round"/>
</svg>
