<svg width="22" height="22" viewBox="0 0 22 22" fill="none" xmlns="http://www.w3.org/2000/svg">
<path d="M5.07693 12.4462C5.07693 11.1882 6.59097 10.1337 7.6154 9.78717C7.96943 9.66665 8.23306 9.32769 8.23306 8.9134V6.09623C8.23306 5.59908 7.8715 5.19233 7.42708 5.19233H7.27643C6.83201 5.19233 6.47045 4.78557 6.47045 4.28842C6.47045 3.79128 6.83201 3.38452 7.27643 3.38452H13.9578C14.4022 3.38452 14.7638 3.79128 14.7638 4.28842C14.7638 4.78557 14.4022 5.19233 13.9578 5.19233H13.8071C13.3627 5.19233 13.0012 5.59908 13.0012 6.09623V8.9134C13.0012 9.32769 13.2648 9.67418 13.6188 9.78717C14.6432 10.1337 16.1573 11.1882 16.1573 12.4462H5.07693Z" stroke="#656568" stroke-width="1.5" stroke-linecap="round" stroke-linejoin="round"/>
<path d="M11.3591 14.7059H9.86762V18.6153H11.3591V14.7059Z" stroke="#656568" stroke-width="1.5" stroke-linecap="round" stroke-linejoin="round"/>
</svg>
