<svg width="26" height="26" viewBox="0 0 26 26" fill="none" xmlns="http://www.w3.org/2000/svg">
<path fill-rule="evenodd" clip-rule="evenodd" d="M3.5 13.02C3.5 7.76225 7.76225 3.5 13.02 3.5C18.2778 3.5 22.54 7.76225 22.54 13.02C22.54 18.2778 18.2778 22.54 13.02 22.54C7.76225 22.54 3.5 18.2778 3.5 13.02ZM13.02 2C6.93382 2 2 6.93382 2 13.02C2 19.1062 6.93382 24.04 13.02 24.04C19.1062 24.04 24.04 19.1062 24.04 13.02C24.04 6.93382 19.1062 2 13.02 2ZM12.47 7.44001C12.33 7.50001 12.23 7.59001 12.15 7.72001H12.14C12.06 7.85001 12.01 8.00001 11.98 8.19001C11.95 8.37001 11.94 8.52001 11.94 8.64001V13.5V14.05C11.93 14.23 11.93 14.41 11.94 14.57C11.9444 14.6181 11.9506 14.6681 11.9572 14.72C11.9656 14.7868 11.9744 14.8568 11.98 14.93C12 15.06 12.02 15.17 12.05 15.26C12.12 15.42 12.24 15.54 12.43 15.62C12.61 15.7 12.81 15.75 13.01 15.75C13.21 15.76 13.41 15.72 13.59 15.64C13.78 15.57 13.9 15.44 13.97 15.28C14.04 15.11 14.07 14.92 14.07 14.73V9.84001C14.07 9.71693 14.0767 9.55347 14.0847 9.36066C14.0864 9.31848 14.0882 9.27489 14.09 9.23001C14.11 8.97001 14.11 8.71001 14.08 8.46001C14.05 8.21001 14 7.98001 13.91 7.78001C13.82 7.58001 13.67 7.45001 13.47 7.39001C13.37 7.37001 13.27 7.35001 13.17 7.35001H12.86C12.74 7.35001 12.61 7.38001 12.47 7.44001ZM13.91 17.24C13.89 17.19 13.83 17.1 13.83 17.1H13.84C13.71 16.97 13.56 16.9 13.38 16.88C13.2 16.87 13.01 16.87 12.83 16.87C12.68 16.87 12.55 16.9 12.42 16.95C12.29 17 12.2 17.1 12.14 17.25C12.09 17.38 12.07 17.54 12.07 17.72C12.07 17.9 12.1 18.05 12.15 18.19C12.2 18.32 12.28 18.42 12.4 18.5C12.52 18.58 12.64 18.63 12.78 18.66C12.91 18.69 13.05 18.69 13.2 18.69C13.35 18.68 13.47 18.65 13.58 18.6C13.7 18.55 13.79 18.48 13.86 18.38C13.93 18.29 13.98 18.18 14.01 18.07C14.04 17.96 14.05 17.85 14.04 17.73C14.03 17.61 14.01 17.5 13.98 17.39C13.9647 17.3442 13.9436 17.3042 13.9256 17.27C13.92 17.2594 13.9147 17.2494 13.91 17.24Z" fill="#FB6E77"/>
</svg>
